# xmcd
#
# Track frame offsets:
#	150
#	21212
#	40792
#	59745
#	81666
#	103428
#	129509
#	151338
#	177934
#	201305
#	222872
#	240391
#	269657
#
# Disc length: 3866 seconds
#
# Revision: 0
# Processed by: cddbd v1.5.2PL0 Copyright (c) Steve Scherf et al.
# Submitted via: dBpowerAMP V4.0
#
DISCID=c40f180d
DTITLE=Bernie Marsden - Stacks - limited pre-release edition march 2005
DYEAR=2005
DGENRE=Blues
TTITLE0=Palace Of The King
TTITLE1=Queen On The Dancefloor
TTITLE2=Send Me Someone To Love
TTITLE3=Latino Pressuro Bambino
TTITLE4=King Of The Blues
TTITLE5=Place In My Heart
TTITLE6=So Long, Farewell, You're Gone
TTITLE7=Funny People
TTITLE8=Day And Night
TTITLE9=Au Revoir Pebble Mill
TTITLE10=Purple Haze
TTITLE11=Pick It Up
TTITLE12=Same Old Blues
EXTD=
EXTT0=
EXTT1=
EXTT2=
EXTT3=
EXTT4=
EXTT5=
EXTT6=
EXTT7=
EXTT8=
EXTT9=
EXTT10=
EXTT11=
EXTT12=
PLAYORDER=
